<svg xmlns="http://www.w3.org/2000/svg" xmlns:xlink="http://www.w3.org/1999/xlink" fill="none" stroke="none" stroke-linecap="square" stroke-miterlimit="10" version="1.1" viewBox="0 0 542.265 100"><clipPath id="p.0"><path d="m0 0l542.2651 0l0 100.0l-542.2651 0l0 -100.0z" clip-rule="nonzero"/></clipPath><g clip-path="url(#p.0)"><path fill="#000" fill-opacity="0" fill-rule="evenodd" d="m0 0l542.2651 0l0 100.0l-542.2651 0z"/><path fill="#b7b7b7" fill-rule="evenodd" d="m16.0 16.0l16.0 0l0 64.0l-16.0 0z"/><path fill-rule="evenodd" stroke="#000" stroke-linecap="butt" stroke-linejoin="round" stroke-width="1" d="m16.0 16.0l16.0 0l0 64.0l-16.0 0z"/><path fill="#cfe2f3" fill-rule="evenodd" d="m32.0 16.0l16.0 0l0 64.0l-16.0 0z"/><path fill-rule="evenodd" stroke="#000" stroke-linecap="butt" stroke-linejoin="round" stroke-width="1" d="m32.0 16.0l16.0 0l0 64.0l-16.0 0z"/><path fill="#b7b7b7" fill-rule="evenodd" d="m48.0 16.0l16.0 0l0 64.0l-16.0 0z"/><path fill-rule="evenodd" stroke="#000" stroke-linecap="butt" stroke-linejoin="round" stroke-width="1" d="m48.0 16.0l16.0 0l0 64.0l-16.0 0z"/><path fill="#b7b7b7" fill-rule="evenodd" d="m64.0 16.0l16.0 0l0 64.0l-16.0 0z"/><path fill-rule="evenodd" stroke="#000" stroke-linecap="butt" stroke-linejoin="round" stroke-width="1" d="m64.0 16.0l16.0 0l0 64.0l-16.0 0z"/><path fill="#cfe2f3" fill-rule="evenodd" d="m80.0 16.0l16.0 0l0 64.0l-16.0 0z"/><path fill-rule="evenodd" stroke="#000" stroke-linecap="butt" stroke-linejoin="round" stroke-width="1" d="m80.0 16.0l16.0 0l0 64.0l-16.0 0z"/><path fill="#cfe2f3" fill-rule="evenodd" d="m96.0 16.0l16.0 0l0 64.0l-16.0 0z"/><path fill-rule="evenodd" stroke="#000" stroke-linecap="butt" stroke-linejoin="round" stroke-width="1" d="m96.0 16.0l16.0 0l0 64.0l-16.0 0z"/><path fill="#b7b7b7" fill-rule="evenodd" d="m112.0 16.0l16.0 0l0 64.0l-16.0 0z"/><path fill-rule="evenodd" stroke="#000" stroke-linecap="butt" stroke-linejoin="round" stroke-width="1" d="m112.0 16.0l16.0 0l0 64.0l-16.0 0z"/><path fill="#b7b7b7" fill-rule="evenodd" d="m128.0 16.0l16.0 0l0 64.0l-16.0 0z"/><path fill-rule="evenodd" stroke="#000" stroke-linecap="butt" stroke-linejoin="round" stroke-width="1" d="m128.0 16.0l16.0 0l0 64.0l-16.0 0z"/><path fill="#cfe2f3" fill-rule="evenodd" d="m144.0 16.0l16.0 0l0 64.0l-16.0 0z"/><path fill-rule="evenodd" stroke="#000" stroke-linecap="butt" stroke-linejoin="round" stroke-width="1" d="m144.0 16.0l16.0 0l0 64.0l-16.0 0z"/><path fill="#b7b7b7" fill-rule="evenodd" d="m160.0 16.0l16.0 0l0 64.0l-16.0 0z"/><path fill-rule="evenodd" stroke="#000" stroke-linecap="butt" stroke-linejoin="round" stroke-width="1" d="m160.0 16.0l16.0 0l0 64.0l-16.0 0z"/><path fill="#cfe2f3" fill-rule="evenodd" d="m176.0 16.0l16.0 0l0 64.0l-16.0 0z"/><path fill-rule="evenodd" stroke="#000" stroke-linecap="butt" stroke-linejoin="round" stroke-width="1" d="m176.0 16.0l16.0 0l0 64.0l-16.0 0z"/><path fill="#b7b7b7" fill-rule="evenodd" d="m192.0 16.0l16.0 0l0 64.0l-16.0 0z"/><path fill-rule="evenodd" stroke="#000" stroke-linecap="butt" stroke-linejoin="round" stroke-width="1" d="m192.0 16.0l16.0 0l0 64.0l-16.0 0z"/><path fill="#cfe2f3" fill-rule="evenodd" d="m208.0 16.0l16.0 0l0 64.0l-16.0 0z"/><path fill-rule="evenodd" stroke="#000" stroke-linecap="butt" stroke-linejoin="round" stroke-width="1" d="m208.0 16.0l16.0 0l0 64.0l-16.0 0z"/><path fill="#cfe2f3" fill-rule="evenodd" d="m224.0 16.0l16.0 0l0 64.0l-16.0 0z"/><path fill-rule="evenodd" stroke="#000" stroke-linecap="butt" stroke-linejoin="round" stroke-width="1" d="m224.0 16.0l16.0 0l0 64.0l-16.0 0z"/><path fill="#b7b7b7" fill-rule="evenodd" d="m240.0 16.0l16.0 0l0 64.0l-16.0 0z"/><path fill-rule="evenodd" stroke="#000" stroke-linecap="butt" stroke-linejoin="round" stroke-width="1" d="m240.0 16.0l16.0 0l0 64.0l-16.0 0z"/><path fill="#cfe2f3" fill-rule="evenodd" d="m256.0 16.0l16.0 0l0 64.0l-16.0 0z"/><path fill-rule="evenodd" stroke="#000" stroke-linecap="butt" stroke-linejoin="round" stroke-width="1" d="m256.0 16.0l16.0 0l0 64.0l-16.0 0z"/><path fill="#b7b7b7" fill-rule="evenodd" d="m272.0 16.0l16.0 0l0 64.0l-16.0 0z"/><path fill-rule="evenodd" stroke="#000" stroke-linecap="butt" stroke-linejoin="round" stroke-width="1" d="m272.0 16.0l16.0 0l0 64.0l-16.0 0z"/><path fill="#b7b7b7" fill-rule="evenodd" d="m288.0 16.0l16.0 0l0 64.0l-16.0 0z"/><path fill-rule="evenodd" stroke="#000" stroke-linecap="butt" stroke-linejoin="round" stroke-width="1" d="m288.0 16.0l16.0 0l0 64.0l-16.0 0z"/><path fill="#b7b7b7" fill-rule="evenodd" d="m304.0 16.0l16.0 0l0 64.0l-16.0 0z"/><path fill-rule="evenodd" stroke="#000" stroke-linecap="butt" stroke-linejoin="round" stroke-width="1" d="m304.0 16.0l16.0 0l0 64.0l-16.0 0z"/><path fill="#b7b7b7" fill-rule="evenodd" d="m320.0 16.0l16.0 0l0 64.0l-16.0 0z"/><path fill-rule="evenodd" stroke="#000" stroke-linecap="butt" stroke-linejoin="round" stroke-width="1" d="m320.0 16.0l16.0 0l0 64.0l-16.0 0z"/><path fill="#cfe2f3" fill-rule="evenodd" d="m336.0 16.0l16.0 0l0 64.0l-16.0 0z"/><path fill-rule="evenodd" stroke="#000" stroke-linecap="butt" stroke-linejoin="round" stroke-width="1" d="m336.0 16.0l16.0 0l0 64.0l-16.0 0z"/><path fill="#cfe2f3" fill-rule="evenodd" d="m352.0 16.0l16.0 0l0 64.0l-16.0 0z"/><path fill-rule="evenodd" stroke="#000" stroke-linecap="butt" stroke-linejoin="round" stroke-width="1" d="m352.0 16.0l16.0 0l0 64.0l-16.0 0z"/><path fill="#cfe2f3" fill-rule="evenodd" d="m368.0 16.0l16.0 0l0 64.0l-16.0 0z"/><path fill-rule="evenodd" stroke="#000" stroke-linecap="butt" stroke-linejoin="round" stroke-width="1" d="m368.0 16.0l16.0 0l0 64.0l-16.0 0z"/><path fill="#b7b7b7" fill-rule="evenodd" d="m384.0 16.0l16.0 0l0 64.0l-16.0 0z"/><path fill-rule="evenodd" stroke="#000" stroke-linecap="butt" stroke-linejoin="round" stroke-width="1" d="m384.0 16.0l16.0 0l0 64.0l-16.0 0z"/><path fill="#b7b7b7" fill-rule="evenodd" d="m400.0 16.0l16.0 0l0 64.0l-16.0 0z"/><path fill-rule="evenodd" stroke="#000" stroke-linecap="butt" stroke-linejoin="round" stroke-width="1" d="m400.0 16.0l16.0 0l0 64.0l-16.0 0z"/><path fill="#b7b7b7" fill-rule="evenodd" d="m416.0 16.0l16.0 0l0 64.0l-16.0 0z"/><path fill-rule="evenodd" stroke="#000" stroke-linecap="butt" stroke-linejoin="round" stroke-width="1" d="m416.0 16.0l16.0 0l0 64.0l-16.0 0z"/><path fill="#cfe2f3" fill-rule="evenodd" d="m432.0 16.0l16.0 0l0 64.0l-16.0 0z"/><path fill-rule="evenodd" stroke="#000" stroke-linecap="butt" stroke-linejoin="round" stroke-width="1" d="m432.0 16.0l16.0 0l0 64.0l-16.0 0z"/><path fill="#b7b7b7" fill-rule="evenodd" d="m448.0 16.0l16.0 0l0 64.0l-16.0 0z"/><path fill-rule="evenodd" stroke="#000" stroke-linecap="butt" stroke-linejoin="round" stroke-width="1" d="m448.0 16.0l16.0 0l0 64.0l-16.0 0z"/><path fill="#b7b7b7" fill-rule="evenodd" d="m464.0 16.0l16.0 0l0 64.0l-16.0 0z"/><path fill-rule="evenodd" stroke="#000" stroke-linecap="butt" stroke-linejoin="round" stroke-width="1" d="m464.0 16.0l16.0 0l0 64.0l-16.0 0z"/><path fill="#cfe2f3" fill-rule="evenodd" d="m480.0 16.0l16.0 0l0 64.0l-16.0 0z"/><path fill-rule="evenodd" stroke="#000" stroke-linecap="butt" stroke-linejoin="round" stroke-width="1" d="m480.0 16.0l16.0 0l0 64.0l-16.0 0z"/><path fill="#b7b7b7" fill-rule="evenodd" d="m496.0 16.0l16.0 0l0 64.0l-16.0 0z"/><path fill-rule="evenodd" stroke="#000" stroke-linecap="butt" stroke-linejoin="round" stroke-width="1" d="m496.0 16.0l16.0 0l0 64.0l-16.0 0z"/><path fill="#cfe2f3" fill-rule="evenodd" d="m512.0 16.0l16.0 0l0 64.0l-16.0 0z"/><path fill-rule="evenodd" stroke="#000" stroke-linecap="butt" stroke-linejoin="round" stroke-width="1" d="m512.0 16.0l16.0 0l0 64.0l-16.0 0z"/></g></svg>