<svg xmlns="http://www.w3.org/2000/svg" width="424" height="163" viewBox="0 0 424 163"><defs><style>.a{fill:#80d186}.a,.c,.d,.e{stroke:#000;stroke-miterlimit:10}.b{font-size:12px;font-family:ArialMT,Arial}.c{fill:#c5c5ff}.d,.e{fill:none}.d{stroke-width:2px}.e{stroke-width:8px}</style></defs><rect width="90" height="36" x=".5" y="72.5" class="a" rx="18"/><text class="b" transform="translate(11.15 93.7)">usb-device-0</text><rect width="90" height="36" x="99.5" y=".5" class="a" rx="18"/><text class="b" transform="translate(123.15 21.7)">usb-bus</text><rect width="90" height="36" x="99.5" y="72.5" class="a" rx="18"/><text class="b" transform="translate(110.15 93.7)">usb-device-1</text><rect width="90" height="36" x="198.5" y="72.5" class="a" rx="18"/><text class="b" transform="translate(209.15 93.7)">usb-device-2</text><rect width="90" height="36" x="198.5" y="126.5" class="a" rx="18"/><text class="b" transform="translate(211.15 147.7)">input-device</text><rect width="117" height="36" x="198.5" y=".5" class="c"/><text class="b" transform="translate(218.57 21.7)">usb-bus-driver</text><rect width="126" height="36" x="297.5" y="72.5" class="c"/><text class="b" transform="translate(307.06 93.7)">usb-keyboard-driver</text><line x1="243.5" x2="243.5" y1="108.5" y2="119.44" class="d"/><polygon points="243.5 126.5 239.44 116.55 243.5 118.91 247.56 116.55 243.5 126.5"/><line x1="288.5" x2="297.5" y1="90.5" y2="90.5" class="e"/><line x1="189.5" x2="198.5" y1="18.5" y2="18.5" class="e"/><line x1="144.5" x2="144.5" y1="36.5" y2="65.44" class="d"/><polygon points="144.5 72.5 140.44 62.55 144.5 64.91 148.56 62.55 144.5 72.5"/><polyline points="45.5 65.44 45.5 54.5 243.5 54.5 243.5 65.44" class="d"/><polygon points="45.5 72.5 49.56 62.55 45.5 64.91 41.44 62.55 45.5 72.5"/><polygon points="243.5 72.5 239.44 62.55 243.5 64.91 247.56 62.55 243.5 72.5"/></svg>